<svg xmlns="http://www.w3.org/2000/svg" viewBox="0 0 520 112" role="img" aria-labelledby="title desc">
  <title id="title">くらしのラクダ</title>
  <desc id="desc">子ラクダのらっくと、くらしのラクダのワードマーク</desc>
  <g transform="translate(4 4)">
    <path d="M18 62c0-24 18-42 42-42h15c20 0 33 14 33 33v24c0 16-13 29-29 29H45c-15 0-27-12-27-27z" fill="#d2b27b"/>
    <path d="M34 29C38 10 49 3 62 3c14 0 25 9 28 27" fill="#e2c99c" stroke="#644c32" stroke-width="4"/>
    <path d="m40 17-13-9m55 9 13-9" stroke="#644c32" stroke-width="5" stroke-linecap="round"/>
    <circle cx="52" cy="36" r="3.5" fill="#292822"/><circle cx="72" cy="36" r="3.5" fill="#292822"/>
    <path d="M53 51c6 5 13 5 19 0" fill="none" stroke="#644c32" stroke-width="4" stroke-linecap="round"/>
    <path d="M22 68c23 12 53 11 82-3" fill="none" stroke="#26523b" stroke-width="10" stroke-linecap="round"/>
    <path d="m72 87 27-1 8-31-30-8z" fill="#26523b" stroke="#644c32" stroke-width="3"/>
  </g>
  <g fill="#233b2e">
    <text x="132" y="65" font-family="'Hiragino Sans','Yu Gothic UI','Yu Gothic',sans-serif" font-size="45" font-weight="800" letter-spacing="2">くらしのラクダ</text>
    <text x="135" y="94" font-family="'Hiragino Sans','Yu Gothic UI','Yu Gothic',sans-serif" font-size="14" font-weight="600" letter-spacing="3">暮らしの答えを、やさしく確かに。</text>
  </g>
</svg>
